<svg width="99" height="83" viewBox="0 0 99 83" fill="none" xmlns="http://www.w3.org/2000/svg">
<g filter="url(#filter0_d_1_816)">
<path d="M10.6883 16.2884C-18.9773 -18.1105 77.0483 16.2884 77.0483 16.2884C77.0483 16.2884 115.19 92.6843 77.0482 69.6823C38.9068 46.6803 10.6883 69.6823 10.6883 69.6823C10.6883 69.6823 40.3539 50.6874 10.6883 16.2884Z" fill="#B40000"/>
<path d="M10.6883 16.2884C-18.9773 -18.1105 77.0483 16.2884 77.0483 16.2884C77.0483 16.2884 115.19 92.6843 77.0482 69.6823C38.9068 46.6803 10.6883 69.6823 10.6883 69.6823C10.6883 69.6823 40.3539 50.6874 10.6883 16.2884Z" fill="url(#paint0_linear_1_816)"/>
</g>
<defs>
<filter id="filter0_d_1_816" x="0" y="0" width="99" height="83" filterUnits="userSpaceOnUse" color-interpolation-filters="sRGB">
<feFlood flood-opacity="0" result="BackgroundImageFix"/>
<feColorMatrix in="SourceAlpha" type="matrix" values="0 0 0 0 0 0 0 0 0 0 0 0 0 0 0 0 0 0 127 0" result="hardAlpha"/>
<feOffset dy="4"/>
<feGaussianBlur stdDeviation="2.5"/>
<feColorMatrix type="matrix" values="0 0 0 0 0.5125 0 0 0 0 0.5125 0 0 0 0 0.5125 0 0 0 0.25 0"/>
<feBlend mode="normal" in2="BackgroundImageFix" result="effect1_dropShadow_1_816"/>
<feBlend mode="normal" in="SourceGraphic" in2="effect1_dropShadow_1_816" result="shape"/>
</filter>
<linearGradient id="paint0_linear_1_816" x1="49.5" y1="1.00001" x2="49.5" y2="74" gradientUnits="userSpaceOnUse">
<stop stop-color="#FFC920"/>
<stop offset="1" stop-color="white" stop-opacity="0"/>
</linearGradient>
</defs>
</svg>
